<svg width="109" height="23" viewBox="0 0 109 23" fill="none" xmlns="http://www.w3.org/2000/svg">
<path d="M0.984 1.2H7.968V3.6H3.624V8.28H7.032V10.68H3.624V18H0.984V1.2ZM10.674 1.2H14.586C15.946 1.2 16.938 1.52 17.562 2.16C18.186 2.784 18.498 3.752 18.498 5.064V6.096C18.498 7.84 17.922 8.944 16.77 9.408V9.456C17.41 9.648 17.858 10.04 18.114 10.632C18.386 11.224 18.522 12.016 18.522 13.008V15.96C18.522 16.44 18.538 16.832 18.57 17.136C18.602 17.424 18.682 17.712 18.81 18H16.122C16.026 17.728 15.962 17.472 15.93 17.232C15.898 16.992 15.882 16.56 15.882 15.936V12.864C15.882 12.096 15.754 11.56 15.498 11.256C15.258 10.952 14.834 10.8 14.226 10.8H13.314V18H10.674V1.2ZM14.274 8.4C14.802 8.4 15.194 8.264 15.45 7.992C15.722 7.72 15.858 7.264 15.858 6.624V5.328C15.858 4.72 15.746 4.28 15.522 4.008C15.314 3.736 14.978 3.6 14.514 3.6H13.314V8.4H14.274ZM23.8337 1.2H27.4097L30.1457 18H27.5057L27.0257 14.664V14.712H24.0257L23.5457 18H21.0977L23.8337 1.2ZM26.7137 12.432L25.5377 4.128H25.4897L24.3377 12.432H26.7137ZM32.8665 1.2H36.1785L38.7465 11.256H38.7945V1.2H41.1465V18H38.4345L35.2665 5.736H35.2185V18H32.8665V1.2ZM46.6127 3.6H43.8527V1.2H52.0127V3.6H49.2527V18H46.6127V3.6ZM47.6927 21.24H46.8287V19.032H49.0367V21L48.0047 22.536H47.0687L47.6927 21.24ZM60.0146 1.2H62.6546V18H60.0146V1.2ZM69.8878 18.24C68.5918 18.24 67.5998 17.872 66.9118 17.136C66.2238 16.4 65.8798 15.36 65.8798 14.016V5.184C65.8798 3.84 66.2238 2.8 66.9118 2.064C67.5998 1.328 68.5918 0.959999 69.8878 0.959999C71.1838 0.959999 72.1758 1.328 72.8638 2.064C73.5518 2.8 73.8958 3.84 73.8958 5.184V14.016C73.8958 15.36 73.5518 16.4 72.8638 17.136C72.1758 17.872 71.1838 18.24 69.8878 18.24ZM69.8878 15.84C70.7998 15.84 71.2558 15.288 71.2558 14.184V5.016C71.2558 3.912 70.7998 3.36 69.8878 3.36C68.9758 3.36 68.5198 3.912 68.5198 5.016V14.184C68.5198 15.288 68.9758 15.84 69.8878 15.84ZM79.1143 1.2H82.6903L85.4263 18H82.7863L82.3063 14.664V14.712H79.3063L78.8263 18H76.3783L79.1143 1.2ZM81.9943 12.432L80.8183 4.128H80.7703L79.6183 12.432H81.9943ZM88.1471 1.2H91.4591L94.0271 11.256H94.0751V1.2H96.4271V18H93.7151L90.5471 5.736H90.4991V18H88.1471V1.2ZM101.869 1.2H105.445L108.181 18H105.541L105.061 14.664V14.712H102.061L101.581 18H99.1333L101.869 1.2ZM104.749 12.432L103.573 4.128H103.525L102.373 12.432H104.749Z" fill="#C9B2FF"/>
</svg>
